<mxfile host="app.diagrams.net" modified="2020-11-12T16:48:00.304Z" agent="5.0 (Macintosh; Intel Mac OS X 11_0_0) AppleWebKit/537.36 (KHTML, like Gecko) Chrome/86.0.4240.183 Safari/537.36" etag="dVvYPjtsSilvZbMzl1S4" version="13.9.7" type="github">
  <diagram id="7PulzRHlynU_nc5UpcM2" name="Page-1">
    <mxGraphModel dx="946" dy="589" grid="1" gridSize="10" guides="1" tooltips="1" connect="1" arrows="1" fold="1" page="1" pageScale="1" pageWidth="850" pageHeight="1100" math="0" shadow="0">
      <root>
        <mxCell id="0" />
        <mxCell id="1" parent="0" />
        <mxCell id="KHSZaEjVXQPe8TdM8yhd-3" value="" style="edgeStyle=orthogonalEdgeStyle;rounded=0;orthogonalLoop=1;jettySize=auto;html=1;" parent="1" source="KHSZaEjVXQPe8TdM8yhd-1" target="KHSZaEjVXQPe8TdM8yhd-2" edge="1">
          <mxGeometry relative="1" as="geometry" />
        </mxCell>
        <mxCell id="KHSZaEjVXQPe8TdM8yhd-9" value="" style="edgeStyle=orthogonalEdgeStyle;rounded=0;orthogonalLoop=1;jettySize=auto;html=1;entryX=0.5;entryY=0;entryDx=0;entryDy=0;" parent="1" source="KHSZaEjVXQPe8TdM8yhd-1" target="KHSZaEjVXQPe8TdM8yhd-15" edge="1">
          <mxGeometry relative="1" as="geometry">
            <mxPoint x="420" y="400" as="targetPoint" />
          </mxGeometry>
        </mxCell>
        <mxCell id="KHSZaEjVXQPe8TdM8yhd-1" value="525 Participants" style="rounded=0;whiteSpace=wrap;html=1;" parent="1" vertex="1">
          <mxGeometry x="360" y="270" width="120" height="60" as="geometry" />
        </mxCell>
        <mxCell id="KHSZaEjVXQPe8TdM8yhd-2" value="Participated in SoSci&lt;br&gt;-Testing&amp;nbsp;&lt;br&gt;- Wrong answers" style="shape=document;whiteSpace=wrap;html=1;boundedLbl=1;rounded=0;" parent="1" vertex="1">
          <mxGeometry x="560" y="260" width="120" height="80" as="geometry" />
        </mxCell>
        <mxCell id="KHSZaEjVXQPe8TdM8yhd-5" value="" style="edgeStyle=orthogonalEdgeStyle;rounded=0;orthogonalLoop=1;jettySize=auto;html=1;" parent="1" source="KHSZaEjVXQPe8TdM8yhd-4" target="KHSZaEjVXQPe8TdM8yhd-1" edge="1">
          <mxGeometry relative="1" as="geometry" />
        </mxCell>
        <mxCell id="KHSZaEjVXQPe8TdM8yhd-4" value="SoSci" style="ellipse;shape=cloud;whiteSpace=wrap;html=1;" parent="1" vertex="1">
          <mxGeometry x="210" y="260" width="120" height="80" as="geometry" />
        </mxCell>
        <mxCell id="KHSZaEjVXQPe8TdM8yhd-14" value="" style="edgeStyle=orthogonalEdgeStyle;rounded=0;orthogonalLoop=1;jettySize=auto;html=1;" parent="1" source="KHSZaEjVXQPe8TdM8yhd-12" target="KHSZaEjVXQPe8TdM8yhd-13" edge="1">
          <mxGeometry relative="1" as="geometry" />
        </mxCell>
        <mxCell id="KHSZaEjVXQPe8TdM8yhd-16" value="" style="edgeStyle=orthogonalEdgeStyle;rounded=0;orthogonalLoop=1;jettySize=auto;html=1;" parent="1" source="KHSZaEjVXQPe8TdM8yhd-12" target="KHSZaEjVXQPe8TdM8yhd-15" edge="1">
          <mxGeometry relative="1" as="geometry" />
        </mxCell>
        <mxCell id="KHSZaEjVXQPe8TdM8yhd-12" value="512 Participants" style="rounded=0;whiteSpace=wrap;html=1;" parent="1" vertex="1">
          <mxGeometry x="530" y="390" width="120" height="60" as="geometry" />
        </mxCell>
        <mxCell id="KHSZaEjVXQPe8TdM8yhd-13" value="prolific academic&lt;br&gt;" style="ellipse;shape=cloud;whiteSpace=wrap;html=1;rounded=0;" parent="1" vertex="1">
          <mxGeometry x="720" y="380" width="130" height="90" as="geometry" />
        </mxCell>
        <mxCell id="KHSZaEjVXQPe8TdM8yhd-18" value="" style="edgeStyle=orthogonalEdgeStyle;rounded=0;orthogonalLoop=1;jettySize=auto;html=1;" parent="1" source="KHSZaEjVXQPe8TdM8yhd-15" target="KHSZaEjVXQPe8TdM8yhd-17" edge="1">
          <mxGeometry relative="1" as="geometry" />
        </mxCell>
        <mxCell id="m4EztUPYemMCUywDCRfM-4" value="" style="edgeStyle=orthogonalEdgeStyle;rounded=0;orthogonalLoop=1;jettySize=auto;html=1;" edge="1" parent="1" source="KHSZaEjVXQPe8TdM8yhd-15" target="m4EztUPYemMCUywDCRfM-3">
          <mxGeometry relative="1" as="geometry" />
        </mxCell>
        <mxCell id="KHSZaEjVXQPe8TdM8yhd-15" value="Merged only approved" style="rhombus;whiteSpace=wrap;html=1;rounded=0;" parent="1" vertex="1">
          <mxGeometry x="370" y="400" width="90" height="90" as="geometry" />
        </mxCell>
        <mxCell id="KHSZaEjVXQPe8TdM8yhd-22" value="" style="edgeStyle=orthogonalEdgeStyle;rounded=0;orthogonalLoop=1;jettySize=auto;html=1;" parent="1" source="KHSZaEjVXQPe8TdM8yhd-17" target="KHSZaEjVXQPe8TdM8yhd-21" edge="1">
          <mxGeometry relative="1" as="geometry" />
        </mxCell>
        <mxCell id="KHSZaEjVXQPe8TdM8yhd-17" value="458 Participants" style="whiteSpace=wrap;html=1;rounded=0;" parent="1" vertex="1">
          <mxGeometry x="358" y="530" width="120" height="60" as="geometry" />
        </mxCell>
        <mxCell id="KHSZaEjVXQPe8TdM8yhd-28" value="" style="edgeStyle=orthogonalEdgeStyle;rounded=0;orthogonalLoop=1;jettySize=auto;html=1;" parent="1" source="KHSZaEjVXQPe8TdM8yhd-21" target="KHSZaEjVXQPe8TdM8yhd-27" edge="1">
          <mxGeometry relative="1" as="geometry" />
        </mxCell>
        <mxCell id="KHSZaEjVXQPe8TdM8yhd-21" value="Filtering" style="rhombus;whiteSpace=wrap;html=1;rounded=0;" parent="1" vertex="1">
          <mxGeometry x="373" y="697.5" width="105" height="105" as="geometry" />
        </mxCell>
        <mxCell id="KHSZaEjVXQPe8TdM8yhd-26" value="" style="edgeStyle=orthogonalEdgeStyle;rounded=0;orthogonalLoop=1;jettySize=auto;html=1;" parent="1" source="KHSZaEjVXQPe8TdM8yhd-25" target="KHSZaEjVXQPe8TdM8yhd-21" edge="1">
          <mxGeometry relative="1" as="geometry" />
        </mxCell>
        <mxCell id="KHSZaEjVXQPe8TdM8yhd-25" value="&lt;span&gt;Filtering out our quality check questions CS06 and CS10&lt;/span&gt;&lt;br&gt;&lt;span&gt;and Country == NA&amp;nbsp;&lt;/span&gt;" style="shape=tape;whiteSpace=wrap;html=1;size=0.21052631578947367;" parent="1" vertex="1">
          <mxGeometry x="530" y="680" width="170" height="140" as="geometry" />
        </mxCell>
        <mxCell id="KHSZaEjVXQPe8TdM8yhd-30" value="" style="edgeStyle=orthogonalEdgeStyle;rounded=0;orthogonalLoop=1;jettySize=auto;html=1;" parent="1" source="KHSZaEjVXQPe8TdM8yhd-27" target="KHSZaEjVXQPe8TdM8yhd-29" edge="1">
          <mxGeometry relative="1" as="geometry" />
        </mxCell>
        <mxCell id="KHSZaEjVXQPe8TdM8yhd-27" value="445 Participants" style="whiteSpace=wrap;html=1;rounded=0;" parent="1" vertex="1">
          <mxGeometry x="365.5" y="905" width="120" height="60" as="geometry" />
        </mxCell>
        <mxCell id="KHSZaEjVXQPe8TdM8yhd-35" value="" style="edgeStyle=orthogonalEdgeStyle;rounded=0;orthogonalLoop=1;jettySize=auto;html=1;" parent="1" source="KHSZaEjVXQPe8TdM8yhd-29" target="KHSZaEjVXQPe8TdM8yhd-34" edge="1">
          <mxGeometry relative="1" as="geometry" />
        </mxCell>
        <mxCell id="KHSZaEjVXQPe8TdM8yhd-37" value="" style="edgeStyle=orthogonalEdgeStyle;rounded=0;orthogonalLoop=1;jettySize=auto;html=1;" parent="1" source="KHSZaEjVXQPe8TdM8yhd-29" target="KHSZaEjVXQPe8TdM8yhd-36" edge="1">
          <mxGeometry relative="1" as="geometry" />
        </mxCell>
        <mxCell id="KHSZaEjVXQPe8TdM8yhd-29" value="filtering" style="rhombus;whiteSpace=wrap;html=1;rounded=0;" parent="1" vertex="1">
          <mxGeometry x="370" y="1060" width="80" height="80" as="geometry" />
        </mxCell>
        <mxCell id="KHSZaEjVXQPe8TdM8yhd-34" value="Filter out people not DACH/US/UK" style="whiteSpace=wrap;html=1;rounded=0;" parent="1" vertex="1">
          <mxGeometry x="510" y="1070" width="120" height="60" as="geometry" />
        </mxCell>
        <mxCell id="KHSZaEjVXQPe8TdM8yhd-36" value="439 Participants" style="whiteSpace=wrap;html=1;rounded=0;" parent="1" vertex="1">
          <mxGeometry x="350" y="1230" width="120" height="60" as="geometry" />
        </mxCell>
        <mxCell id="m4EztUPYemMCUywDCRfM-3" value="5 people didnt enter their prolific ID to match in the Survey" style="shape=tape;whiteSpace=wrap;html=1;rounded=0;size=0.1;" vertex="1" parent="1">
          <mxGeometry x="185" y="395" width="120" height="100" as="geometry" />
        </mxCell>
        <mxCell id="m4EztUPYemMCUywDCRfM-5" value="" style="shape=image;verticalLabelPosition=bottom;labelBackgroundColor=#ffffff;verticalAlign=top;aspect=fixed;imageAspect=0;image=data:image/png,iVBORw0KGgoAAAANSUhEUgAAATAAAAApCAYAAACyVXUUAAAOcklEQVR4Ae2dB6wVRRfHUUFpAiIootIUEUVpYkFEmg1BQQ1KAEVEQhVFUSAIUiItYheMogIBKzZQMEQUEhsg2OkdQYoNG0oZ8zt8Z795+3b3vlswb++dk+x7e3d2Z2f+c/Y/Z87OnC1inDgEHAIOgZgiUCSm5XbFdgg4BBwCxhGYUwKHgEMgtgg4Aott07mCOwQcAo7AnA44BBwCsUXAEVhsm84V3CHgEIgFgf3+++/m008/Nbt27XItFoLA33//bT777DOHUQg+7nBqCOzbt88sW7bMrF+/PrUMDvNVSRPYwYMHTaVKlcztt9+ep2hjx441pUuXNmeddZapX7++ueyyy6TinBSV9vzzz5vixYvLdZUrVzbnn3+++eCDD7y8X3vtNVOiRAnTvHlzOW/EiBGS9vTTT5szzjjDO4+dX375xRxzzDFmy5Yt5s033zTFihUzderU8bYnn3xSzu/Zs6cpX768Ofvss03jxo3NfffdZyCAdKVq1aqGrXr16qZGjRqmV69e5s8//5Rso8rDCd9//72Us3bt2qZIkSJm27Ztch114netWrW8enTt2tUrKu1x1113SfoNN9wgOL744ovmiSeeMODJdvTRR5uyZct6v1etWhUrfMCTelSoUMEcccQRXj169Ohh7r//fkO9baENIPMNGzYIdujkySefLNg89thjcuqBAwck7dVXX/UuRRevuuoq+R3VXi+99JLoGbqFrnfr1s1s2rTJyydsp1OnTl7ZadOKFSvK73POOUcuue2226SNS5UqZU466STZnz59uvnmm2+krEuXLvWy3rt3r7TpCy+8IHofpiOplpUbfffdd6ZKlSqmQYMG5oQTTjBt2rTx9PmSSy4RHdMCgTXPKRLVXnp+pv4nTWAff/yxKVOmjDnxxBMNSqACSWnjc+yhhx6SBuKcqDSUBiVAOPfhhx8W0Pj9008/CSkuWrRI0gEJICnD9u3bRZm//vprSePPjBkzzHnnnSe/UcBq1ap5afYOBMaGQDBdunQxKE+6woPz1ltvSTa7d+8WMnvuuefkd1R57PtiZQYR2MaNG+3TvP2+ffuaCy+8MJKAIX9wtSWqPIUVn4ULF8pDa9ejIAT266+/yiWQ2lFHHSXWhBJYzZo1zT///CPpfgIL0x9I4cwzz5Rr9u/fbyZNmmQgIe2s7PKF7UPEy5cvD0z2t5cS2J133umdD/GiJzaBBelIOmW96KKLzOjRow2d5G+//WZatGhhHnzwQSlDFIFpIYPaS9My9T9pAsNaGTx4sPSGH330kVcOP0nRIx155JHm559/zkdgdppNYGT23nvviTKw/+yzz5oLLrjAuwc7WDW9e/eWYwCsFhkHrr/+ejNq1ChJK+gDysmrV6+W3oOGSkdsAiMfyjdr1izJMqo89j2TITAewpIlSwqh23n49/0PBOlR5bEJjHMLCz5BD0QyBMZDiIUOxkpgV155pXn00UcFslQITLHGQsTNUVBJlsBOPfVUMRogTOSaa66RDjoZAtOyFaSsa9euFbIHM5WXX35ZrFh+x5bAGMrQULfccosZOHCg1i0fSdHjN2zYUNL95Gan2QT2ww8/iLlKr4EMGzbMdOjQwbsHO+SFKYuMHz/e1K1bV/bp/XiY1SLjAcVamzNnjrf98ccfcq7/AcUcR6EYeqYjNoExxKVXxoeARJXHvmcYgWHJaV02b94sl6xYsULKvWfPHjuLfPthBBY3fNIhMKysm2++2bO8lcDIExwYqvsJLAwf26pRsOmsGO4VVJIlMDpyRirvvvuuEDDDV8jXJrAgHUm1rAsWLBBc7Prw3OMmQmJJYDwwNCqNj2WB+a0CsQDqxIkTRVHwOSiZRKWhNFhqjPuLFi2aZ6gzYMAAY/t7uBc+jGbNmsltsQwwo9etW2feeOMNc9ppp2lxhDDI86abbvI2CBLxExj14d5ffvmld30qOxAY/jyIlOEHQ2AVCCysPHoO/8MIrG3btl49UC4EXyF+h0SWYxiBhZWnsOKTKoFRTyyv9u3be24PJTCG+h07djSDBg3KR2Bh+ASRAhirJWe3Z9h+KgQ2btw4KSv+TSxPP4EF6Uiisn7++edm9uzZ3vb+++9Lkd9+++18LpivvvpKnlWwiyWBQURYXpix6jD/9ttvpcKk8dA+8MAD4gfiQVSJSrMtsKuvvloaRa+jwWgUW4YPH25uvPFG7xAO2gkTJogfC8JTSWaIBLGhULztTEfUAlNfC746lajy6Dn837lzZ4F9YEp2+AajJIzAwnw8fgIrLPgEERhWOq4DW0455RSzZMkSz4mPDwwdwW+L3iI2gdExQ1YjR470/LhR7RVECvjE3nnnHbsYkfupEBjtTOd47rnnimPfT2CJfGBaILusjzzyiJAiJM52xx13yGno8LHHHquXyH86TDBEmjZtah5//HEvnSEnGNoS1F52eib2k/KB4SymUuXKlZONt1s4+RBIynbi24WLSrMJDEsKCwZrCqEXYOxvWxiM/SExlSFDhkhvcPzxxxt19pMWpYD+B5T7QT7pihIY+fCWlrc3PChIVHns++IfxKrUYaG+hQxSTq7D0p0yZYqdRb79dAmssOAT9EDgRsAasIU3rj/++GMeAmMISWfXv39/OdUmMA507txZ3p6pDke1l5/AeGOM3ibqSOwypkJgXM8zyNtzJBUCK2hZwY+3+BCTCqOrSy+9VH62bt1arEBN44WEvk3VY0HtpWmZ+l9gAuOtH42kDxYFgL31rV8USUWl2QRGnpATlgE+LZSOV82vvPKK1Je3MZTBBnXx4sViPXGeOjg5GQWEUJgeoZv6oyAwCIbhw+uvvy5THihHumITGHkzVeOpp56SbKPKg2muJI0fBQtCRQmM4bLWQ9+acc60adNkWK/DYzDQt26aRxiBxQUfrUfQA8FbX6ZXgDfy4Ycfep0RhEJnoHgw9MZVAN5+AmNqCW8obQILwwcCwxeMxY5VcsUVV8jIRMtZkP+pEhjEoqMbP4EF6Ug6ZW3Xrp33wgxnPpabdpZM3eGtpOotIy9GZ7YEtZednon9AhMYTmnmdtmCxURD4PyOIqmoND+B/fXXX9ITMjRAUBCsq1atWsl/ncul5QBArJBbb71VD8l/CAPltTfmDSEQGMexIOm9x4wZk+faVH/YBEYeYAaJ8XBFladJkyYyHwiFPO6448z8+fO9IiiB2fXwz38bOnSokBjtw/1mzpzpXc9OGIHZebJfWPHRygQ9EBA286vQAciHOYqch/gJjGMMk7Ai/ARGGk5+m8DC8IEUSEP38fv269cvj79Tbp7gTxCBXXvttdJ+kCxDRdpy8uTJMlz0v40nez+B2eVVHUmnrFu3bpW5lhdffLE8k+CsRgKuDoaybOgXhK6dqFY9qL00LVP/C0xgmbphKvlAaozJmZKRrYKFSx2payqCVYY1qr1zKnnE+RomAlP/TExIjjMOmS47RP/FF18YffNt54/xgP+QkZFaYnb6f7EfCwL7L4Bw93AIOATih4AjsPi1mSuxQ8Ah8D8EHIE5VXAIOARii4AjsNg2nSu4Q8Ah4AjM6YBDwCEQWwQcgcW26VzBHQIOgawnMKYlsKyEV70s2lZhfhXRNFgKxatiJ3kRYDoCs6s/+eSTPJOX856V3b8SYYDesJYwV6euJGp9JtaCjz3xOtE1yaZnBYExO5mJjKxls2Xq1KkyK5uAd0xevPvuuyWZybAsxyDSBRMRWU1gk5udRy7us1CfiZNM+mSyJBOJdZFvruCRCIO5c+dK8M3rrrtOJhHrDPVcwYd6MuG6Xr16shLCrjez9tEbJomzEb6H1Q+HQ7KCwFAi1kzaBMakRqJaMkHUL/akO/ZZIgHZOTmEgH8ybZ8+fYTMcgmfRBiwrlIjpLIcjY4wl4TlfYS1ImYfS7lsIagCq11U7r33XlkXrL8z+T/2BPbMM8+IJdW9e3cvmCEAYT2w9CGRrFy5UlbRE/fbSX4EsExZLkLcqVyVIAwIzcPSI4ZHRMO45557chIeXDOsQ7YF610DeXKccD0sc2LWfqYl1gTGAlxiz7PW0E9gDAtZbM6wkd4SK421myqsz2zUqJGsZ6MHdRKMAIve7fBFwWdl99EgDFi6xNpXLH9CPuXqEqYgAiNEu7pr0AzWKUNgRFvOtMSWwOj5ICkWSSN+AmMxKwEXWTWPlYUZy8cG1GGPg5oQuaQT40iDBGYa4DjnR3huwrdoJNs41yXVsodhQHRSLA8W4qNn+hGWVO8T1+uCCAx/F8NKjAYWgjPUPP30073vRWSyrrElMD6kQOQGYuSz8TUfLCr2USYiseLYV38XhMfHSIKcifSwXOvk/wholBDe1uaqhGFAUAF0iS9mEZ2BKBIMs1XXcgmvIAKj/vie8StjGDBCIvrG4XDTxJbAAI5YWLrxlhFfBL956Ajvq8HXVKGwtIK+BEMMLoYDTg4hsGbNGnmzVpBPhWUrZlEY8PUrOkwVwvYQFh2dzDUJIzAbh3nz5gnhpxvx2M5T92NLYFoB/e8fQjL3Sz+hxTl8EEMD1PG9O/0EFg5aArPxbT8nhxBguI0Fi19Ht8M5l6cw4h6FAbpF+GRiYiHMJyR2l//NZWGsV6bLFERgBA7VuGHsM6XC/gBQJsuQtQQGSIDGRy9atmwpzlYNOc2QkeMESUTxLr/88qyONZaswhBZ0w6Ox35Y/Pxk847L+YkwoMMjeCKdH75VXBq5JAwPeXYI383wkH02ho74nDlOpFr0htkAh2ueZdYQWJjyECWSQIF+RzRWGOGHk4ljHnYPdzw3EcCKxyWRi76vRC2OHxrLdMeOHYlOTSs96wksLXTcxQ4Bh0ChRsARWKFuHlc4h4BDIAoBR2BR6Lg0h4BDoFAjkBECU4dvoa6pK5xDwCGQdQg4Asu6JnUVcgjkDgKOwHKnrV1NHQJZh4AjsKxrUlchh0DuIPAv8ujjZTd580AAAAAASUVORK5CYII=;imageBorder=#000000;" vertex="1" parent="1">
          <mxGeometry x="468" y="454" width="304" height="41" as="geometry" />
        </mxCell>
      </root>
    </mxGraphModel>
  </diagram>
</mxfile>
